<svg xmlns="http://www.w3.org/2000/svg" width="1200" height="675" viewBox="0 0 1200 675">
  <rect width="1200" height="675" fill="#0f172a"/>
  <rect x="0" y="0" width="220" height="675" fill="#1e293b"/>
  <text x="24" y="36" font-family="system-ui" font-size="16" font-weight="bold" fill="#a78bfa">Nexus</text>
  <text x="24" y="90" font-family="system-ui" font-size="13" fill="#94a3b8">Overview</text>
  <text x="24" y="120" font-family="system-ui" font-size="13" fill="#64748b">Agents</text>
  <text x="24" y="150" font-family="system-ui" font-size="13" fill="#64748b">Deployments</text>
  <text x="24" y="180" font-family="system-ui" font-size="13" fill="#64748b">Team</text>
  <rect x="240" y="20" width="240" height="100" rx="8" fill="#1e293b"/>
  <text x="260" y="58" font-family="system-ui" font-size="24" font-weight="bold" fill="#a78bfa">4</text>
  <text x="260" y="88" font-family="system-ui" font-size="13" fill="#64748b">Active Agents</text>
  <rect x="500" y="20" width="240" height="100" rx="8" fill="#1e293b"/>
  <text x="520" y="58" font-family="system-ui" font-size="24" font-weight="bold" fill="#4ade80">12</text>
  <text x="520" y="88" font-family="system-ui" font-size="13" fill="#64748b">Deployments Today</text>
  <rect x="760" y="20" width="240" height="100" rx="8" fill="#1e293b"/>
  <text x="780" y="58" font-family="system-ui" font-size="24" font-weight="bold" fill="#22d3ee">98.2%</text>
  <text x="780" y="88" font-family="system-ui" font-size="13" fill="#64748b">Success Rate</text>
  <rect x="240" y="140" width="720" height="300" rx="8" fill="#1e293b"/>
  <text x="264" y="174" font-family="system-ui" font-size="14" fill="#94a3b8">Pipeline Status</text>
  <rect x="264" y="194" width="660" height="50" rx="6" fill="#0f172a"/>
  <text x="284" y="226" font-family="system-ui" font-size="13" fill="white">portfolio-build</text>
  <rect x="640" y="204" width="80" height="28" rx="14" fill="#4ade8022"/>
  <text x="680" y="223" font-family="system-ui" font-size="12" fill="#4ade80" text-anchor="middle">passing</text>
</svg>
