<svg xmlns="http://www.w3.org/2000/svg" width="1200" height="675" viewBox="0 0 1200 675">
  <rect width="1200" height="675" fill="#0f172a"/>
  <rect x="0" y="0" width="1200" height="56" fill="#1e293b"/>
  <text x="24" y="36" font-family="system-ui" font-size="18" font-weight="bold" fill="#f87171">VectorSearch - Index Management</text>
  <rect x="24" y="76" width="560" height="500" rx="8" fill="#1e293b"/>
  <text x="48" y="114" font-family="system-ui" font-size="14" fill="#94a3b8">Index Statistics</text>
  <text x="48" y="160" font-family="system-ui" font-size="28" font-weight="bold" fill="#f87171">2.4M</text>
  <text x="48" y="190" font-family="system-ui" font-size="13" fill="#64748b">Total Vectors</text>
  <text x="48" y="250" font-family="system-ui" font-size="28" font-weight="bold" fill="#22d3ee">98ms</text>
  <text x="48" y="280" font-family="system-ui" font-size="13" fill="#64748b">Avg Query Time</text>
  <text x="48" y="340" font-family="system-ui" font-size="28" font-weight="bold" fill="#4ade80">1536</text>
  <text x="48" y="370" font-family="system-ui" font-size="13" fill="#64748b">Dimensions</text>
  <rect x="614" y="76" width="560" height="500" rx="8" fill="#1e293b"/>
  <text x="638" y="114" font-family="system-ui" font-size="14" fill="#94a3b8">Namespace Distribution</text>
  <rect x="638" y="140" width="400" height="24" rx="4" fill="#f8717133"/>
  <rect x="638" y="140" width="280" height="24" rx="4" fill="#f87171"/>
  <text x="1050" y="158" font-family="system-ui" font-size="12" fill="#94a3b8">70%</text>
  <rect x="638" y="180" width="400" height="24" rx="4" fill="#22d3ee33"/>
  <rect x="638" y="180" width="100" height="24" rx="4" fill="#22d3ee"/>
  <text x="1050" y="198" font-family="system-ui" font-size="12" fill="#94a3b8">25%</text>
  <rect x="638" y="220" width="400" height="24" rx="4" fill="#4ade8033"/>
  <rect x="638" y="220" width="20" height="24" rx="4" fill="#4ade80"/>
  <text x="1050" y="238" font-family="system-ui" font-size="12" fill="#94a3b8">5%</text>
</svg>
